<svg width="14" height="13" viewBox="0 0 14 13" fill="none" xmlns="http://www.w3.org/2000/svg">
<path d="M1.59425 0.676498H11.9974C12.6091 0.676498 13.1067 1.34677 13.1067 2.17064V10.8294C13.1067 11.6533 12.6091 12.3236 11.9974 12.3236H1.59425C0.982559 12.3236 0.48491 11.6533 0.48491 10.8294V2.17064C0.48491 1.34677 0.982559 0.676498 1.59425 0.676498ZM1.73903 1.67259L1.88709 1.83864L6.35568 6.85035C6.61073 7.13637 6.98095 7.13637 7.23595 6.85035L11.7045 1.83864L11.8526 1.67259H1.73903ZM12.3672 2.39171L8.72626 6.47513L12.3672 9.73876V2.39171ZM1.59425 11.3275H11.9974C12.1761 11.3275 12.3255 11.1559 12.3597 10.9287L8.13328 7.14015L7.70917 7.61582C7.44456 7.91259 7.12016 8.06097 6.79579 8.06097C6.47142 8.06097 6.14705 7.91259 5.88241 7.61582L5.4583 7.14015L1.23186 10.9286C1.26613 11.1559 1.41557 11.3275 1.59425 11.3275ZM1.22447 9.73876L4.86537 6.47516L1.22447 2.39171V9.73876Z" fill="white"/>
</svg>
