<svg width="34" height="35" viewBox="0 0 34 35" fill="none" xmlns="http://www.w3.org/2000/svg">
<path d="M31.877 17.3947C31.877 16.1671 31.776 15.2713 31.5573 14.3423H17.3405V19.883H25.6855C25.5173 21.26 24.6088 23.3336 22.5898 24.727L22.5615 24.9125L27.0566 28.3461L27.368 28.3767C30.2281 25.7722 31.877 21.9401 31.877 17.3947" fill="#4285F4"/>
<path d="M17.3396 31.9933C21.4279 31.9933 24.8601 30.6661 27.367 28.3769L22.5888 24.7271C21.3102 25.6064 19.594 26.2202 17.3396 26.2202C13.3354 26.2202 9.93683 23.6157 8.72535 20.0159L8.54777 20.0307L3.87373 23.5974L3.81261 23.765C6.30261 28.6422 11.4173 31.9933 17.3396 31.9933Z" fill="#34A853"/>
<path d="M8.72623 20.016C8.40657 19.087 8.22157 18.0916 8.22157 17.0631C8.22157 16.0345 8.40657 15.0392 8.70941 14.1102L8.70094 13.9124L3.96831 10.2884L3.81347 10.361C2.78722 12.3849 2.19835 14.6577 2.19835 17.0631C2.19835 19.4685 2.78722 21.7411 3.81347 23.765L8.72623 20.016" fill="#FBBC05"/>
<path d="M17.3397 7.90588C20.183 7.90588 22.101 9.11689 23.1946 10.1289L27.468 6.01476C24.8435 3.60934 21.428 2.1329 17.3397 2.1329C11.4173 2.1329 6.30263 5.48388 3.81261 10.3611L8.70856 14.1102C9.93687 10.5104 13.3354 7.90588 17.3397 7.90588" fill="#EB4335"/>
</svg>
