<svg width="19" height="17" viewBox="0 0 19 17" fill="none" xmlns="http://www.w3.org/2000/svg">
<path d="M14.0035 7.2296V4.53742C14.0112 3.31927 13.4873 2.14798 12.5519 1.29383C11.6476 0.457706 10.4638 0 9.21018 0C9.19077 0 9.16748 0 9.14808 0C6.47392 0.00360399 4.30044 2.03625 4.30044 4.53742V7.2296C3.29132 7.34132 2.55389 8.12699 2.55389 9.07844V15.1259C2.55389 16.1531 3.43881 17 4.54496 17H13.7628C14.869 17 15.7539 16.1531 15.7539 15.1259V9.07844C15.75 8.13059 15.0126 7.34132 14.0035 7.2296ZM5.0728 4.53742H5.07668C5.07668 2.43269 6.90474 0.709985 9.15196 0.709985H9.15584C10.2232 0.706381 11.2478 1.09922 12.0047 1.79839C12.7925 2.52279 13.2311 3.51028 13.2234 4.53742V7.2332H12.3695V4.53742C12.3772 3.71931 12.0279 2.93364 11.4031 2.35701C10.8131 1.8092 10.0136 1.49926 9.17913 1.49926H9.15584C7.37048 1.49926 5.92667 2.86156 5.92667 4.53381V7.2332H5.0728V4.53742ZM11.5971 4.53742V7.2332H6.70679V4.53742C6.70679 3.26161 7.8013 2.22366 9.15972 2.22366H9.18301C9.81177 2.22366 10.4172 2.45792 10.8636 2.87238C11.3371 3.31206 11.6049 3.91393 11.5971 4.53742ZM15.0126 15.1367C15.0126 15.7674 14.4615 16.2792 13.7822 16.2792H4.56048C3.88127 16.2792 3.33014 15.7674 3.33014 15.1367V9.09646C3.33014 8.46576 3.88127 7.954 4.56048 7.954H13.7822C14.4615 7.954 15.0126 8.46576 15.0126 9.09646V15.1367Z" fill="white"/>
<path d="M10.4948 11.8932C10.324 11.3346 9.77673 10.9525 9.15185 10.9525C8.37949 10.9525 7.75073 11.5328 7.75073 12.2536C7.75073 12.8338 8.16214 13.342 8.76373 13.5005V14.5097C8.76373 14.7079 8.93838 14.8701 9.15185 14.8701C9.36532 14.8701 9.53997 14.7079 9.53997 14.5097V13.5005C10.2813 13.3023 10.7121 12.5815 10.4948 11.8932ZM9.15185 12.8302C8.80642 12.8302 8.52698 12.5707 8.52698 12.25C8.52698 11.9292 8.80642 11.6697 9.15185 11.6697C9.49728 11.6697 9.77673 11.9292 9.77673 12.25C9.77673 12.5707 9.49728 12.8302 9.15185 12.8302Z" fill="white"/>
</svg>
