<svg width="17" height="16" viewBox="0 0 17 16" fill="none" xmlns="http://www.w3.org/2000/svg">
<path d="M8.37886 7.70726C9.50388 7.70726 10.4779 7.3275 11.274 6.57823C12.0699 5.82909 12.4735 4.91247 12.4735 3.85351C12.4735 2.79492 12.07 1.87817 11.2739 1.12878C10.4778 0.37976 9.50375 0 8.37886 0C7.25372 0 6.2798 0.37976 5.48384 1.1289C4.68787 1.87805 4.28424 2.79479 4.28424 3.85351C4.28424 4.91247 4.68787 5.82921 5.48384 6.57836C6.28006 7.32738 7.25411 7.70726 8.37886 7.70726ZM6.18837 1.79187C6.79912 1.21704 7.51558 0.93762 8.37886 0.93762C9.24202 0.93762 9.95861 1.21704 10.5695 1.79187C11.1802 2.36682 11.4773 3.04125 11.4773 3.85351C11.4773 4.66601 11.1802 5.34032 10.5695 5.91527C9.95861 6.49022 9.24202 6.76964 8.37886 6.76964C7.51584 6.76964 6.79938 6.4901 6.18837 5.91527C5.57748 5.34044 5.28047 4.66601 5.28047 3.85351C5.28047 3.04125 5.57748 2.36682 6.18837 1.79187Z" fill="white"/>
<path d="M15.5434 12.3032C15.5204 11.9914 15.474 11.6513 15.4056 11.2922C15.3366 10.9304 15.2478 10.5883 15.1414 10.2757C15.0314 9.9526 14.8822 9.63351 14.6973 9.32773C14.5058 9.01034 14.2806 8.73398 14.028 8.50656C13.7638 8.26865 13.4403 8.07736 13.0662 7.93784C12.6935 7.79904 12.2804 7.72873 11.8385 7.72873C11.665 7.72873 11.4971 7.79575 11.173 7.99436C10.9735 8.11679 10.7402 8.25839 10.4798 8.41501C10.2571 8.54855 9.95539 8.67368 9.58276 8.78696C9.21921 8.89767 8.85009 8.95383 8.48563 8.95383C8.12143 8.95383 7.75231 8.89767 7.3885 8.78696C7.01626 8.6738 6.71445 8.54868 6.49215 8.41513C6.23417 8.25998 6.00071 8.11838 5.79825 7.99423C5.47439 7.79563 5.30656 7.72861 5.13302 7.72861C4.69101 7.72861 4.27804 7.79904 3.90541 7.93796C3.53162 8.07724 3.20802 8.26853 2.94356 8.50668C2.69091 8.73422 2.46575 9.01047 2.27431 9.32773C2.08975 9.63351 1.94033 9.95248 1.83035 10.2758C1.72412 10.5885 1.63528 10.9304 1.56628 11.2922C1.4978 11.6508 1.4515 11.9911 1.42854 12.3036C1.40597 12.6091 1.39456 12.9271 1.39456 13.2484C1.39456 14.0836 1.67665 14.7597 2.23294 15.2584C2.78234 15.7504 3.50918 16 4.39334 16H12.579C13.4629 16 14.1897 15.7504 14.7392 15.2584C15.2956 14.7601 15.5777 14.0837 15.5777 13.2483C15.5776 12.9259 15.5661 12.6079 15.5434 12.3032ZM14.0523 14.5791C13.6893 14.9043 13.2073 15.0623 12.5788 15.0623H4.39334C3.76469 15.0623 3.28273 14.9043 2.91983 14.5792C2.5638 14.2602 2.39078 13.8248 2.39078 13.2484C2.39078 12.9486 2.40129 12.6526 2.4223 12.3684C2.44279 12.0896 2.48468 11.7833 2.54681 11.4579C2.60816 11.1364 2.68624 10.8348 2.7791 10.5617C2.86821 10.2999 2.98973 10.0406 3.14045 9.79086C3.28428 9.55282 3.44978 9.3486 3.6324 9.18405C3.80321 9.03012 4.01851 8.90414 4.27221 8.80966C4.50683 8.72226 4.77051 8.67441 5.05676 8.66721C5.09165 8.68466 5.15377 8.71799 5.25442 8.77975C5.45922 8.90536 5.69527 9.04868 5.95623 9.20554C6.25039 9.38205 6.62937 9.54147 7.08215 9.67904C7.54505 9.81991 8.01715 9.89145 8.48576 9.89145C8.95436 9.89145 9.4266 9.81991 9.88924 9.67917C10.3424 9.54135 10.7213 9.38205 11.0158 9.20529C11.2829 9.04465 11.5123 8.90549 11.7171 8.77975C11.8177 8.71811 11.8799 8.68466 11.9148 8.66721C12.2011 8.67441 12.4648 8.72226 12.6996 8.80966C12.9531 8.90414 13.1684 9.03024 13.3393 9.18405C13.5219 9.34848 13.6874 9.5527 13.8312 9.79098C13.982 10.0406 14.1037 10.3 14.1927 10.5616C14.2857 10.835 14.3639 11.1366 14.4251 11.4577C14.4871 11.7838 14.5291 12.0902 14.5496 12.3685V12.3687C14.5708 12.6518 14.5814 12.9477 14.5815 13.2484C14.5814 13.8249 14.4084 14.2602 14.0523 14.5791Z" fill="white"/>
</svg>
